# xmcd
#
# Track frame offsets:
#	150
#	18339
#	33617
#	48252
#	64478
#	78694
#	94819
#	107268
#	130812
#	145727
#	156375
#	172430
#
# Disc length: 2506 seconds
#
# Revision: 0
# Processed by: cddbd v1.5.2PL0 Copyright (c) Steve Scherf et al.
# Submitted via: audiograbber 1.83.01
#
DISCID=a809c80c
DTITLE=Jimi Hendrix - The Best Of Jimi Hendrix
DYEAR=1968
DGENRE=Rock
TTITLE0=All Along The Watchtower
TTITLE1=Hey Joe
TTITLE2=Foxy Lady
TTITLE3=The Burning Of The Midnight Lamp
TTITLE4=Love Or Confusion
TTITLE5=Stone Free
TTITLE6=Purple Haze
TTITLE7=Vodoo Chile
TTITLE8=The Wind Cries Mary
TTITLE9=Cross Town Traffic
TTITLE10=Manic Depression
TTITLE11=Highway Chile
EXTD=
EXTT0=
EXTT1=
EXTT2=
EXTT3=
EXTT4=
EXTT5=
EXTT6=
EXTT7=
EXTT8=
EXTT9=
EXTT10=
EXTT11=
PLAYORDER=
